<?xml version="1.0" encoding="UTF-8"?>
<!DOCTYPE svg PUBLIC "-//W3C//DTD SVG 1.1//EN" "http://www.w3.org/Graphics/SVG/1.1/DTD/svg11.dtd">
<svg version="1.2" width="210mm" height="297mm" viewBox="0 0 21000 29700" preserveAspectRatio="xMidYMid" fill-rule="evenodd" stroke-width="28.222" stroke-linejoin="round" xmlns="http://www.w3.org/2000/svg" xmlns:ooo="http://xml.openoffice.org/svg/export" xmlns:xlink="http://www.w3.org/1999/xlink" xmlns:presentation="http://sun.com/xmlns/staroffice/presentation" xmlns:smil="http://www.w3.org/2001/SMIL20/" xmlns:anim="urn:oasis:names:tc:opendocument:xmlns:animation:1.0" xml:space="preserve">
 <defs class="ClipPathGroup">
  <clipPath id="presentation_clip_path" clipPathUnits="userSpaceOnUse">
   <rect x="0" y="0" width="21000" height="29700"/>
  </clipPath>
 </defs>
 <defs class="TextShapeIndex">
  <g ooo:slide="id1" ooo:id-list="id3 id4 id5 id6"/>
 </defs>
 <defs class="EmbeddedBulletChars">
  <g id="bullet-char-template(57356)" transform="scale(0.00048828125,-0.00048828125)">
   <path d="M 580,1141 L 1163,571 580,0 -4,571 580,1141 Z"/>
  </g>
  <g id="bullet-char-template(57354)" transform="scale(0.00048828125,-0.00048828125)">
   <path d="M 8,1128 L 1137,1128 1137,0 8,0 8,1128 Z"/>
  </g>
  <g id="bullet-char-template(10146)" transform="scale(0.00048828125,-0.00048828125)">
   <path d="M 174,0 L 602,739 174,1481 1456,739 174,0 Z M 1358,739 L 309,1346 659,739 1358,739 Z"/>
  </g>
  <g id="bullet-char-template(10132)" transform="scale(0.00048828125,-0.00048828125)">
   <path d="M 2015,739 L 1276,0 717,0 1260,543 174,543 174,936 1260,936 717,1481 1274,1481 2015,739 Z"/>
  </g>
  <g id="bullet-char-template(10007)" transform="scale(0.00048828125,-0.00048828125)">
   <path d="M 0,-2 C -7,14 -16,27 -25,37 L 356,567 C 262,823 215,952 215,954 215,979 228,992 255,992 264,992 276,990 289,987 310,991 331,999 354,1012 L 381,999 492,748 772,1049 836,1024 860,1049 C 881,1039 901,1025 922,1006 886,937 835,863 770,784 769,783 710,716 594,584 L 774,223 C 774,196 753,168 711,139 L 727,119 C 717,90 699,76 672,76 641,76 570,178 457,381 L 164,-76 C 142,-110 111,-127 72,-127 30,-127 9,-110 8,-76 1,-67 -2,-52 -2,-32 -2,-23 -1,-13 0,-2 Z"/>
  </g>
  <g id="bullet-char-template(10004)" transform="scale(0.00048828125,-0.00048828125)">
   <path d="M 285,-33 C 182,-33 111,30 74,156 52,228 41,333 41,471 41,549 55,616 82,672 116,743 169,778 240,778 293,778 328,747 346,684 L 369,508 C 377,444 397,411 428,410 L 1163,1116 C 1174,1127 1196,1133 1229,1133 1271,1133 1292,1118 1292,1087 L 1292,965 C 1292,929 1282,901 1262,881 L 442,47 C 390,-6 338,-33 285,-33 Z"/>
  </g>
  <g id="bullet-char-template(9679)" transform="scale(0.00048828125,-0.00048828125)">
   <path d="M 813,0 C 632,0 489,54 383,161 276,268 223,411 223,592 223,773 276,916 383,1023 489,1130 632,1184 813,1184 992,1184 1136,1130 1245,1023 1353,916 1407,772 1407,592 1407,412 1353,268 1245,161 1136,54 992,0 813,0 Z"/>
  </g>
  <g id="bullet-char-template(8226)" transform="scale(0.00048828125,-0.00048828125)">
   <path d="M 346,457 C 273,457 209,483 155,535 101,586 74,649 74,723 74,796 101,859 155,911 209,963 273,989 346,989 419,989 480,963 531,910 582,859 608,796 608,723 608,648 583,586 532,535 482,483 420,457 346,457 Z"/>
  </g>
  <g id="bullet-char-template(8211)" transform="scale(0.00048828125,-0.00048828125)">
   <path d="M -4,459 L 1135,459 1135,606 -4,606 -4,459 Z"/>
  </g>
 </defs>
 <defs class="TextEmbeddedBitmaps"/>
 <g>
  <g id="id2" class="Master_Slide">
   <g id="bg-id2" class="Background"/>
   <g id="bo-id2" class="BackgroundObjects"/>
  </g>
 </g>
 <g class="SlideGroup">
  <g>
   <g id="id1" class="Slide" clip-path="url(#presentation_clip_path)">
    <g class="Page">
     <g class="com.sun.star.drawing.PolyPolygonShape">
      <g id="id3">
       <rect class="BoundingBox" stroke="none" fill="none" x="1634" y="7095" width="18037" height="17021"/>
       <path fill="rgb(255,204,0)" stroke="none" d="M 11922,9636 L 13954,7858 14208,10525 16621,9255 15859,11922 18907,11668 17002,13954 19669,14843 17002,16494 19161,18907 16240,19034 17891,21955 13954,21066 13446,24114 11033,21955 8620,23987 8493,21447 5064,22336 6207,20177 2524,20177 4683,17891 1635,17256 4175,15859 1635,14081 4937,13192 2270,11414 6588,10906 5826,8239 8620,9763 10144,7096 10271,7223 11922,9636 Z"/>
       <path fill="none" stroke="rgb(255,204,0)" d="M 11922,9636 L 13954,7858 14208,10525 16621,9255 15859,11922 18907,11668 17002,13954 19669,14843 17002,16494 19161,18907 16240,19034 17891,21955 13954,21066 13446,24114 11033,21955 8620,23987 8493,21447 5064,22336 6207,20177 2524,20177 4683,17891 1635,17256 4175,15859 1635,14081 4937,13192 2270,11414 6588,10906 5826,8239 8620,9763 10144,7096 10271,7223 11922,9636 Z"/>
      </g>
     </g>
     <g class="com.sun.star.drawing.EllipseShape">
      <g id="id4">
       <rect class="BoundingBox" stroke="none" fill="none" x="7197" y="12897" width="2227" height="813"/>
       <path fill="none" stroke="rgb(102,102,102)" stroke-width="81" stroke-linejoin="round" d="M 7238,13520 C 7261,13434 7300,13363 7368,13287 7467,13176 7591,13096 7763,13032 7935,12967 8104,12938 8303,12938 8501,12938 8670,12967 8842,13032 9014,13096 9138,13176 9237,13287 9337,13399 9382,13508 9382,13637 9382,13648 9382,13657 9381,13668"/>
      </g>
     </g>
     <g class="com.sun.star.drawing.EllipseShape">
      <g id="id5">
       <rect class="BoundingBox" stroke="none" fill="none" x="8721" y="17415" width="3856" height="530"/>
       <path fill="none" stroke="rgb(102,102,102)" stroke-width="106" stroke-linejoin="round" d="M 12523,17479 C 12481,17537 12414,17585 12302,17637 12126,17718 11908,17776 11605,17823 11301,17870 11003,17891 10652,17891 10301,17891 10003,17870 9700,17823 9396,17776 9178,17718 9002,17637 8883,17582 8814,17531 8774,17468"/>
      </g>
     </g>
     <g class="com.sun.star.drawing.EllipseShape">
      <g id="id6">
       <rect class="BoundingBox" stroke="none" fill="none" x="11627" y="12897" width="2227" height="813"/>
       <path fill="none" stroke="rgb(102,102,102)" stroke-width="81" stroke-linejoin="round" d="M 11668,13520 C 11691,13434 11730,13363 11798,13287 11897,13176 12021,13096 12193,13032 12365,12967 12534,12938 12733,12938 12931,12938 13100,12967 13272,13032 13444,13096 13568,13176 13667,13287 13767,13399 13812,13508 13812,13637 13812,13648 13812,13657 13811,13668"/>
      </g>
     </g>
    </g>
   </g>
  </g>
 </g>
</svg>